<svg width="32" height="32" viewBox="0 0 32 32" fill="none" xmlns="http://www.w3.org/2000/svg">
<rect width="32" height="32" rx="5" fill="#5E72E4"/>
<path d="M11.824 21.392C12.736 21.392 13.408 21.272 13.84 21.032C14.288 20.792 14.512 20.408 14.512 19.88C14.512 19.336 14.296 18.904 13.864 18.584C13.432 18.264 12.72 17.904 11.728 17.504C11.248 17.312 10.784 17.12 10.336 16.928C9.904 16.72 9.528 16.48 9.208 16.208C8.888 15.936 8.632 15.608 8.44 15.224C8.248 14.84 8.152 14.368 8.152 13.808C8.152 12.704 8.56 11.832 9.376 11.192C10.192 10.536 11.304 10.208 12.712 10.208C13.064 10.208 13.416 10.232 13.768 10.28C14.12 10.312 14.448 10.36 14.752 10.424C15.056 10.472 15.32 10.528 15.544 10.592C15.784 10.656 15.968 10.712 16.096 10.76L15.688 12.68C15.448 12.552 15.072 12.424 14.56 12.296C14.048 12.152 13.432 12.08 12.712 12.08C12.088 12.08 11.544 12.208 11.08 12.464C10.616 12.704 10.384 13.088 10.384 13.616C10.384 13.888 10.432 14.128 10.528 14.336C10.64 14.544 10.8 14.736 11.008 14.912C11.232 15.072 11.504 15.224 11.824 15.368C12.144 15.512 12.528 15.664 12.976 15.824C13.568 16.048 14.096 16.272 14.56 16.496C15.024 16.704 15.416 16.952 15.736 17.24C16.072 17.528 16.328 17.88 16.504 18.296C16.68 18.696 16.768 19.192 16.768 19.784C16.768 20.936 16.336 21.808 15.472 22.4C14.624 22.992 13.408 23.288 11.824 23.288C10.72 23.288 9.856 23.192 9.232 23C8.608 22.824 8.184 22.688 7.96 22.592L8.368 20.672C8.624 20.768 9.032 20.912 9.592 21.104C10.152 21.296 10.896 21.392 11.824 21.392ZM23.3749 23.24C21.9989 23.208 21.0229 22.912 20.4469 22.352C19.8709 21.792 19.5829 20.92 19.5829 19.736V4.76L21.8149 4.376V19.376C21.8149 19.744 21.8469 20.048 21.9109 20.288C21.9749 20.528 22.0789 20.72 22.2229 20.864C22.3669 21.008 22.5589 21.12 22.7989 21.2C23.0389 21.264 23.3349 21.32 23.6869 21.368L23.3749 23.24Z" fill="#F6F9FC"/>
</svg>
