<svg width="123" height="36" viewBox="0 0 123 36" fill="none" xmlns="http://www.w3.org/2000/svg">
<line x1="1.5" y1="34.5" x2="48.5" y2="34.5" stroke="#5E72E4" stroke-width="3" stroke-linecap="round"/>
<g clip-path="url(#clip0_28_3)">
<path d="M5.432 22.856C6.648 22.856 7.544 22.696 8.12 22.376C8.71733 22.056 9.016 21.544 9.016 20.84C9.016 20.1147 8.728 19.5387 8.152 19.112C7.576 18.6853 6.62667 18.2053 5.304 17.672C4.664 17.416 4.04533 17.16 3.448 16.904C2.872 16.6267 2.37067 16.3067 1.944 15.944C1.51733 15.5813 1.176 15.144 0.919999 14.632C0.663999 14.12 0.535999 13.4907 0.535999 12.744C0.535999 11.272 1.08 10.1093 2.168 9.25597C3.256 8.3813 4.73867 7.94397 6.616 7.94397C7.08533 7.94397 7.55467 7.97597 8.024 8.03997C8.49333 8.08264 8.93067 8.14664 9.336 8.23197C9.74133 8.29597 10.0933 8.37064 10.392 8.45597C10.712 8.5413 10.9573 8.61597 11.128 8.67997L10.584 11.24C10.264 11.0693 9.76267 10.8987 9.08 10.728C8.39733 10.536 7.576 10.44 6.616 10.44C5.784 10.44 5.05867 10.6107 4.44 10.952C3.82133 11.272 3.512 11.784 3.512 12.488C3.512 12.8507 3.576 13.1707 3.704 13.448C3.85333 13.7253 4.06667 13.9813 4.344 14.216C4.64267 14.4293 5.00533 14.632 5.432 14.824C5.85867 15.016 6.37067 15.2187 6.968 15.432C7.75733 15.7307 8.46133 16.0293 9.08 16.328C9.69867 16.6053 10.2213 16.936 10.648 17.32C11.096 17.704 11.4373 18.1733 11.672 18.728C11.9067 19.2613 12.024 19.9227 12.024 20.712C12.024 22.248 11.448 23.4107 10.296 24.2C9.16533 24.9893 7.544 25.384 5.432 25.384C3.96 25.384 2.808 25.256 1.976 25C1.144 24.7653 0.578666 24.584 0.279999 24.456L0.823999 21.896C1.16533 22.024 1.70933 22.216 2.456 22.472C3.20267 22.728 4.19467 22.856 5.432 22.856ZM15.8413 25V0.679968L18.8173 0.167969V8.67997C19.3719 8.46664 19.9586 8.30664 20.5773 8.19997C21.2173 8.07197 21.8466 8.00797 22.4653 8.00797C23.7879 8.00797 24.8866 8.19997 25.7613 8.58397C26.6359 8.94664 27.3293 9.4693 27.8413 10.152C28.3746 10.8133 28.7479 11.6133 28.9613 12.552C29.1746 13.4907 29.2812 14.5253 29.2812 15.656V25H26.3053V16.296C26.3053 15.272 26.2306 14.3973 26.0813 13.672C25.9533 12.9467 25.7293 12.36 25.4093 11.912C25.0893 11.464 24.6626 11.144 24.1293 10.952C23.5959 10.7387 22.9346 10.632 22.1453 10.632C21.8253 10.632 21.4946 10.6533 21.1533 10.696C20.8119 10.7387 20.4813 10.792 20.1613 10.856C19.8626 10.8987 19.5853 10.952 19.3293 11.016C19.0946 11.08 18.9239 11.1333 18.8173 11.176V25H15.8413ZM48.8105 16.68C48.8105 18.0027 48.6185 19.1973 48.2345 20.264C47.8505 21.3307 47.3065 22.248 46.6025 23.016C45.9198 23.784 45.0985 24.3813 44.1385 24.808C43.1785 25.2133 42.1332 25.416 41.0025 25.416C39.8718 25.416 38.8265 25.2133 37.8665 24.808C36.9065 24.3813 36.0745 23.784 35.3705 23.016C34.6878 22.248 34.1545 21.3307 33.7705 20.264C33.3865 19.1973 33.1945 18.0027 33.1945 16.68C33.1945 15.3787 33.3865 14.1947 33.7705 13.128C34.1545 12.04 34.6878 11.112 35.3705 10.344C36.0745 9.57597 36.9065 8.9893 37.8665 8.58397C38.8265 8.1573 39.8718 7.94397 41.0025 7.94397C42.1332 7.94397 43.1785 8.1573 44.1385 8.58397C45.0985 8.9893 45.9198 9.57597 46.6025 10.344C47.3065 11.112 47.8505 12.04 48.2345 13.128C48.6185 14.1947 48.8105 15.3787 48.8105 16.68ZM45.7065 16.68C45.7065 14.8027 45.2798 13.32 44.4265 12.232C43.5945 11.1227 42.4532 10.568 41.0025 10.568C39.5518 10.568 38.3998 11.1227 37.5465 12.232C36.7145 13.32 36.2985 14.8027 36.2985 16.68C36.2985 18.5573 36.7145 20.0507 37.5465 21.16C38.3998 22.248 39.5518 22.792 41.0025 22.792C42.4532 22.792 43.5945 22.248 44.4265 21.16C45.2798 20.0507 45.7065 18.5573 45.7065 16.68ZM64.5495 16.712C64.5495 14.7707 64.0695 13.2773 63.1095 12.232C62.1495 11.1867 60.8695 10.664 59.2695 10.664C58.3735 10.664 57.6695 10.696 57.1575 10.76C56.6668 10.824 56.2722 10.8987 55.9735 10.984V21.48C56.3362 21.7787 56.8588 22.0667 57.5415 22.344C58.2242 22.6213 58.9708 22.76 59.7815 22.76C60.6348 22.76 61.3602 22.6107 61.9575 22.312C62.5762 21.992 63.0775 21.5653 63.4615 21.032C63.8455 20.4773 64.1228 19.8373 64.2935 19.112C64.4642 18.3653 64.5495 17.5653 64.5495 16.712ZM67.6535 16.712C67.6535 17.9707 67.4828 19.1333 67.1415 20.2C66.8215 21.2667 66.3415 22.184 65.7015 22.952C65.0615 23.72 64.2722 24.3173 63.3335 24.744C62.4162 25.1707 61.3602 25.384 60.1655 25.384C59.2055 25.384 58.3522 25.256 57.6055 25C56.8802 24.744 56.3362 24.4987 55.9735 24.264V30.92H52.9975V8.87197C53.7015 8.7013 54.5762 8.51997 55.6215 8.32797C56.6882 8.11464 57.9148 8.00797 59.3015 8.00797C60.5815 8.00797 61.7335 8.21064 62.7575 8.61597C63.7815 9.0213 64.6562 9.5973 65.3815 10.344C66.1068 11.0907 66.6615 12.008 67.0455 13.096C67.4508 14.1627 67.6535 15.368 67.6535 16.712ZM84.2395 25.32C82.4048 25.2773 81.1035 24.8827 80.3355 24.136C79.5675 23.3893 79.1835 22.2267 79.1835 20.648V0.679968L82.1595 0.167969V20.168C82.1595 20.6587 82.2022 21.064 82.2875 21.384C82.3728 21.704 82.5115 21.96 82.7035 22.152C82.8955 22.344 83.1515 22.4933 83.4715 22.6C83.7915 22.6853 84.1862 22.76 84.6555 22.824L84.2395 25.32ZM90.9735 25H87.9975V8.35997H90.9735V25ZM89.4695 5.35197C88.9362 5.35197 88.4775 5.1813 88.0935 4.83997C87.7308 4.4773 87.5495 3.9973 87.5495 3.39997C87.5495 2.80264 87.7308 2.3333 88.0935 1.99197C88.4775 1.6293 88.9362 1.44797 89.4695 1.44797C90.0028 1.44797 90.4508 1.6293 90.8135 1.99197C91.1975 2.3333 91.3895 2.80264 91.3895 3.39997C91.3895 3.9973 91.1975 4.4773 90.8135 4.83997C90.4508 5.1813 90.0028 5.35197 89.4695 5.35197ZM98.8753 8.35997H105.179V10.856H98.8753V18.536C98.8753 19.368 98.9393 20.0613 99.0673 20.616C99.1953 21.1493 99.3873 21.576 99.6433 21.896C99.8993 22.1947 100.219 22.408 100.603 22.536C100.987 22.664 101.435 22.728 101.947 22.728C102.843 22.728 103.558 22.632 104.091 22.44C104.646 22.2267 105.03 22.0773 105.243 21.992L105.819 24.456C105.521 24.6053 104.998 24.7867 104.251 25C103.505 25.2347 102.651 25.352 101.691 25.352C100.561 25.352 99.6219 25.2133 98.8753 24.936C98.1499 24.6373 97.5633 24.2 97.1153 23.624C96.6673 23.048 96.3473 22.344 96.1553 21.512C95.9846 20.6587 95.8993 19.6773 95.8993 18.568V3.71997L98.8753 3.20797V8.35997ZM107.726 16.712C107.726 15.24 107.939 13.96 108.366 12.872C108.792 11.7627 109.358 10.8453 110.062 10.12C110.766 9.39464 111.576 8.85064 112.494 8.48797C113.411 8.1253 114.35 7.94397 115.31 7.94397C117.55 7.94397 119.267 8.64797 120.462 10.056C121.656 11.4427 122.254 13.5653 122.254 16.424C122.254 16.552 122.254 16.7227 122.254 16.936C122.254 17.128 122.243 17.3093 122.222 17.48H110.83C110.958 19.208 111.459 20.52 112.334 21.416C113.208 22.312 114.574 22.76 116.43 22.76C117.475 22.76 118.35 22.6747 119.054 22.504C119.779 22.312 120.323 22.1307 120.686 21.96L121.102 24.456C120.739 24.648 120.099 24.8507 119.182 25.064C118.286 25.2773 117.262 25.384 116.11 25.384C114.659 25.384 113.4 25.1707 112.334 24.744C111.288 24.296 110.424 23.688 109.742 22.92C109.059 22.152 108.547 21.2453 108.206 20.2C107.886 19.1333 107.726 17.9707 107.726 16.712ZM119.15 15.08C119.171 13.736 118.83 12.6373 118.126 11.784C117.443 10.9093 116.494 10.472 115.278 10.472C114.595 10.472 113.987 10.6107 113.454 10.888C112.942 11.144 112.504 11.4853 112.142 11.912C111.779 12.3387 111.491 12.8293 111.278 13.384C111.086 13.9387 110.958 14.504 110.894 15.08H119.15Z" fill="#6C757D"/>
</g>
<defs>
<clipPath id="clip0_28_3">
<rect width="123" height="31" fill="white"/>
</clipPath>
</defs>
</svg>
