<svg width="40" height="40" viewBox="0 0 40 40" fill="none" xmlns="http://www.w3.org/2000/svg">
<rect width="39.1837" height="40" rx="5" fill="#5E72E4"/>
<path d="M13.932 28.6894C15.148 28.6894 16.044 28.5294 16.62 28.2094C17.2173 27.8894 17.516 27.3774 17.516 26.6734C17.516 25.948 17.228 25.372 16.652 24.9454C16.076 24.5187 15.1267 24.0387 13.804 23.5054C13.164 23.2494 12.5453 22.9934 11.948 22.7374C11.372 22.46 10.8707 22.14 10.444 21.7774C10.0173 21.4147 9.676 20.9774 9.42 20.4654C9.164 19.9534 9.036 19.324 9.036 18.5774C9.036 17.1054 9.58 15.9427 10.668 15.0894C11.756 14.2147 13.2387 13.7774 15.116 13.7774C15.5853 13.7774 16.0547 13.8094 16.524 13.8734C16.9933 13.916 17.4307 13.98 17.836 14.0654C18.2413 14.1294 18.5933 14.204 18.892 14.2894C19.212 14.3747 19.4573 14.4494 19.628 14.5134L19.084 17.0734C18.764 16.9027 18.2627 16.732 17.58 16.5614C16.8973 16.3694 16.076 16.2734 15.116 16.2734C14.284 16.2734 13.5587 16.444 12.94 16.7854C12.3213 17.1054 12.012 17.6174 12.012 18.3214C12.012 18.684 12.076 19.004 12.204 19.2814C12.3533 19.5587 12.5667 19.8147 12.844 20.0494C13.1427 20.2627 13.5053 20.4654 13.932 20.6574C14.3587 20.8494 14.8707 21.052 15.468 21.2654C16.2573 21.564 16.9613 21.8627 17.58 22.1614C18.1987 22.4387 18.7213 22.7694 19.148 23.1534C19.596 23.5374 19.9373 24.0067 20.172 24.5614C20.4067 25.0947 20.524 25.756 20.524 26.5454C20.524 28.0814 19.948 29.244 18.796 30.0334C17.6653 30.8227 16.044 31.2174 13.932 31.2174C12.46 31.2174 11.308 31.0894 10.476 30.8334C9.644 30.5987 9.07867 30.4174 8.78 30.2894L9.324 27.7294C9.66533 27.8574 10.2093 28.0494 10.956 28.3054C11.7027 28.5614 12.6947 28.6894 13.932 28.6894ZM29.3333 31.1534C27.4986 31.1107 26.1973 30.716 25.4293 29.9694C24.6613 29.2227 24.2773 28.06 24.2773 26.4814V6.51337L27.2533 6.00137V26.0014C27.2533 26.492 27.2959 26.8974 27.3813 27.2174C27.4666 27.5374 27.6053 27.7934 27.7973 27.9854C27.9893 28.1774 28.2453 28.3267 28.5653 28.4334C28.8853 28.5187 29.2799 28.5934 29.7493 28.6574L29.3333 31.1534Z" fill="#F6F9FC"/>
</svg>
