<svg width="42" height="30" viewBox="0 0 42 30" fill="none" xmlns="http://www.w3.org/2000/svg">
<g clip-path="url(#clip0_1773_123)">
<mask id="mask0_1773_123" style="mask-type:luminance" maskUnits="userSpaceOnUse" x="0" y="0" width="42" height="30">
<path d="M41.6667 0H0V30H41.6667V0Z" fill="white"/>
</mask>
<g mask="url(#mask0_1773_123)">
<path d="M41.6667 13.6258C41.6667 6.11918 32.3398 0 20.8343 0C9.3288 0 0.00198333 6.11918 0.00198333 13.6258C0.00198333 13.8199 0 14.3557 0 14.424C0 22.3882 8.1523 28.837 20.8313 28.837C33.5887 28.837 41.6667 22.3892 41.6667 14.425V13.6258Z" fill="#2D3277"/>
<path d="M40.8693 13.6192C40.8693 20.696 31.901 26.4328 20.8372 26.4328C9.77522 26.4328 0.806885 20.696 0.806885 13.6192C0.806885 6.54235 9.77522 0.804443 20.8372 0.804443C31.901 0.804443 40.8693 6.54235 40.8693 13.6192Z" fill="#F7D032"/>
<path d="M14.1863 9.57597C14.1764 9.59677 13.9764 9.80275 14.1051 9.96912C14.422 10.3732 15.3985 10.6049 16.3858 10.3831C16.9732 10.2514 17.7277 9.65222 18.4567 9.07289C19.2478 8.44404 20.0332 7.81519 20.8215 7.56464C21.6573 7.29824 22.192 7.41212 22.5457 7.52007C22.9338 7.63594 23.3903 7.89044 24.1172 8.4371C25.4888 9.46704 31 14.278 31.9517 15.1099C32.7182 14.7633 36.1268 13.2956 40.7595 12.2746C40.3565 9.80474 38.8552 7.54582 36.5765 5.69689C33.4015 7.02985 29.5213 7.72605 25.7275 5.87217C25.7077 5.86524 23.6548 4.89275 21.6285 4.94029C18.618 5.0106 17.3147 6.31385 15.9342 7.69239L14.1863 9.57597Z" fill="white"/>
<path d="M31.7278 15.6326C31.6633 15.5752 25.2482 9.96105 23.7943 8.86871C22.9535 8.23788 22.4852 8.07747 21.9938 8.01507C21.7383 7.9814 21.3848 8.02893 21.1383 8.09626C20.4618 8.28046 19.5775 8.8717 18.7932 9.49361C17.9802 10.1413 17.2137 10.7513 16.5026 10.9098C15.5944 11.1138 14.4853 10.8731 13.9792 10.5315C13.7742 10.3938 13.6297 10.2334 13.5603 10.072C13.3742 9.6382 13.7178 9.29158 13.7752 9.23415L15.5449 7.31887C15.7509 7.11288 15.9579 6.9079 16.1708 6.70586C15.5994 6.78013 15.0716 6.92571 14.5576 7.06931C13.9159 7.24955 13.2989 7.42088 12.675 7.42088C12.4135 7.42088 11.0182 7.19212 10.7528 7.11982C9.15044 6.68112 7.74419 6.25428 5.64474 5.27386C3.12734 7.14656 1.4438 9.48965 0.95755 12.0704C1.31902 12.1665 1.90231 12.3398 2.14691 12.3933C7.84226 13.6599 9.61689 14.9651 9.93874 15.2375C10.2863 14.8492 10.7884 14.6037 11.3499 14.6037C11.9808 14.6046 12.5482 14.9215 12.8939 15.4108C13.2197 15.1533 13.6693 14.9324 14.2516 14.9334C14.515 14.9334 14.7893 14.982 15.0656 15.076C15.7083 15.2969 16.0401 15.7247 16.2124 16.1119C16.4273 16.0139 16.6927 15.9426 17.0047 15.9436C17.3117 15.9436 17.6305 16.0139 17.9515 16.1525C19.0022 16.6031 19.1655 17.634 19.0705 18.4123C19.1448 18.4035 19.22 18.3995 19.2973 18.3995C20.5422 18.4005 21.5552 19.4127 21.5542 20.6585C21.5542 21.0447 21.4562 21.4072 21.2848 21.725C21.6225 21.9152 22.4872 22.346 23.2447 22.2508C23.8508 22.1737 24.0805 21.9667 24.1637 21.8508C24.2192 21.7697 24.2795 21.6775 24.2242 21.6092L22.6168 19.8237C22.6168 19.8237 22.3523 19.574 22.4395 19.477C22.5297 19.379 22.693 19.5205 22.809 19.6167C23.627 20.3 24.6262 21.3308 24.6262 21.3308C24.643 21.3428 24.7093 21.4725 25.0788 21.5388C25.3957 21.5963 25.9582 21.5627 26.3483 21.2427C26.4463 21.1615 26.5445 21.0605 26.6277 20.9565C26.6207 20.9625 26.6147 20.9693 26.6098 20.9713C27.0198 20.4455 26.5632 19.9137 26.5632 19.9137L24.6875 17.8063C24.6875 17.8063 24.4192 17.5588 24.5103 17.4587C24.5915 17.3725 24.7648 17.5033 24.8817 17.6003C25.4768 18.0975 26.3157 18.9393 27.1198 19.7275C27.2773 19.8425 27.9843 20.2802 28.9202 19.6652C29.4887 19.2928 29.6025 18.8343 29.5867 18.4887C29.547 18.0322 29.1905 17.7063 29.1905 17.7063L26.6277 15.1295C26.6277 15.1295 26.3563 14.8988 26.4523 14.7819C26.5305 14.6839 26.7058 14.8255 26.8207 14.9215C27.6387 15.6049 29.8482 17.631 29.8482 17.631C29.8788 17.6528 30.6423 18.1965 31.5872 17.5953C31.9238 17.3805 32.1397 17.0557 32.1585 16.6773C32.1902 16.0218 31.7278 15.6326 31.7278 15.6326Z" fill="white"/>
<path d="M19.2965 18.899C18.8993 18.894 18.4647 19.1307 18.4082 19.096C18.3755 19.0752 18.432 18.9158 18.4695 18.8237C18.5072 18.7325 19.031 17.158 17.7545 16.6103C16.7792 16.1914 16.1819 16.6628 15.9759 16.8767C15.9235 16.9322 15.8987 16.9272 15.8928 16.8558C15.873 16.5727 15.7472 15.8052 14.9034 15.5487C13.7002 15.1803 12.9248 16.0201 12.7297 16.3231C12.6406 15.6378 12.0602 15.104 11.3502 15.104C10.5777 15.103 9.95184 15.7289 9.94986 16.5004C9.94986 17.2728 10.5757 17.8987 11.3482 17.8987C11.7235 17.8997 12.0642 17.7492 12.3147 17.5085C12.3227 17.5165 12.3256 17.5293 12.3227 17.556C12.2632 17.9017 12.1553 19.1573 13.4704 19.6693C13.9973 19.8733 14.4469 19.7218 14.8183 19.4605C14.9292 19.3822 14.947 19.4148 14.9312 19.5198C14.8836 19.8427 14.944 20.534 15.9136 20.928C16.6523 21.2282 17.089 20.9212 17.3743 20.6557C17.499 20.5428 17.5327 20.5607 17.5397 20.737C17.5743 21.6718 18.3507 22.4135 19.2945 22.4145C20.266 22.4155 21.0533 21.6302 21.0543 20.6587C21.0553 19.6872 20.268 18.9098 19.2965 18.899Z" fill="white"/>
<path d="M19.2965 22.2897C18.416 22.2887 17.7 21.6043 17.6673 20.732C17.6653 20.6577 17.6575 20.4587 17.4892 20.4587C17.4198 20.4587 17.3603 20.5002 17.291 20.5627C17.097 20.7428 16.8503 20.925 16.4909 20.925C16.3265 20.925 16.1503 20.8865 15.9631 20.8102C15.0332 20.4338 15.0213 19.7952 15.0589 19.5387C15.0688 19.4693 15.0718 19.398 15.0243 19.3425L14.9678 19.292H14.9094C14.8628 19.292 14.8133 19.3108 14.7479 19.3573C14.4786 19.5465 14.2211 19.6387 13.9587 19.6387C13.8141 19.6387 13.6656 19.6088 13.518 19.5515C12.294 19.0752 12.39 17.9195 12.4494 17.5718C12.4583 17.5015 12.4415 17.447 12.3969 17.4103L12.3098 17.3392L12.2296 17.4173C11.9899 17.6472 11.6789 17.7728 11.3502 17.7728C10.649 17.7718 10.0786 17.2025 10.0786 16.5003C10.0796 15.7991 10.651 15.2297 11.3521 15.2307C11.9859 15.2307 12.5257 15.707 12.6059 16.3408L12.6504 16.6815L12.8376 16.3923C12.8584 16.3587 13.3724 15.5823 14.3171 15.5833C14.4964 15.5833 14.6816 15.612 14.8688 15.6694C15.6214 15.8992 15.7492 16.5825 15.769 16.8667C15.7828 17.0322 15.9007 17.04 15.9235 17.04C15.9888 17.04 16.0364 16.9985 16.071 16.9638C16.2126 16.8152 16.5216 16.5686 17.0058 16.5686C17.2277 16.5696 17.4633 16.6211 17.707 16.727C18.9043 17.24 18.3617 18.7612 18.3547 18.777C18.2517 19.0285 18.2477 19.1395 18.3448 19.2038L18.3913 19.2267H18.427C18.4805 19.2267 18.5478 19.2028 18.6587 19.1662C18.8212 19.1098 19.0677 19.0247 19.2965 19.0257C20.1977 19.0345 20.9305 19.7683 20.9305 20.6597C20.9295 21.5588 20.1967 22.2897 19.2965 22.2897ZM31.9765 14.9603C29.9998 13.2362 25.4325 9.26503 24.1955 8.33709C23.4885 7.80529 23.0072 7.52404 22.5833 7.39828C22.3942 7.34083 22.1298 7.27548 21.792 7.27548C21.4772 7.27548 21.1385 7.33193 20.7858 7.44383C19.9867 7.69734 19.1905 8.33016 18.42 8.94218L18.3805 8.97386C17.6635 9.54429 16.9217 10.1345 16.3602 10.2603C16.1146 10.3148 15.8631 10.3435 15.6115 10.3435C14.9837 10.3425 14.4182 10.1613 14.2063 9.89091C14.1716 9.84634 14.1944 9.77404 14.2766 9.67006L14.2865 9.65619L16.0255 7.78251C17.3872 6.42181 18.6735 5.13539 21.6337 5.06706C21.6832 5.06608 21.7327 5.06508 21.7812 5.06508C23.6242 5.06608 25.4672 5.89101 25.6732 5.98706C27.4012 6.82983 29.1848 7.25764 30.9773 7.25963C32.846 7.25963 34.7742 6.79714 36.8013 5.86426C36.5745 5.67413 36.3388 5.48794 36.0962 5.30671C34.3167 6.07818 32.6192 6.46836 30.9822 6.46738C29.3105 6.46638 27.6408 6.06531 26.0187 5.27404C25.9335 5.23244 23.8985 4.27381 21.7822 4.27283C21.7267 4.27283 21.6703 4.27381 21.6158 4.27481C19.1292 4.33323 17.7278 5.21561 16.786 5.99004C15.87 6.01183 15.0797 6.23366 14.3756 6.42874C13.7487 6.60403 13.207 6.75556 12.6772 6.75456C12.4603 6.75456 12.0681 6.73476 12.0335 6.73376C11.4254 6.71494 8.36238 5.96429 5.92718 5.04131C5.67862 5.21759 5.43897 5.39981 5.20623 5.58499C7.75137 6.62879 10.8481 7.43491 11.8255 7.49829C12.0969 7.51611 12.387 7.54681 12.6762 7.54781C13.3229 7.54781 13.9686 7.36658 14.5925 7.19129C14.9619 7.08731 15.3689 6.97541 15.7977 6.89321C15.6828 7.00511 15.5689 7.11899 15.4541 7.23289L13.6873 9.14519C13.5487 9.28483 13.2466 9.65916 13.4457 10.1207C13.5249 10.3068 13.6854 10.4851 13.9102 10.6356C14.332 10.9198 15.0857 11.111 15.7858 11.111C16.0502 11.112 16.3028 11.0852 16.5335 11.0327C17.2742 10.8674 18.0507 10.2484 18.8727 9.59479C19.5292 9.07389 20.4602 8.41236 21.1732 8.21826C21.3732 8.16379 21.6178 8.13011 21.8138 8.13011C21.8733 8.13111 21.9287 8.13309 21.9792 8.13903C22.4517 8.19944 22.9062 8.35988 23.7192 8.96991C25.17 10.0593 31.5853 15.6724 31.6487 15.7278C31.6537 15.7308 32.0627 16.0844 32.034 16.6707C32.0192 16.9985 31.8368 17.2887 31.521 17.4907C31.2477 17.664 30.9643 17.752 30.6792 17.752C30.2503 17.751 29.9553 17.551 29.9355 17.5372C29.9117 17.5183 27.7142 15.502 26.9052 14.8247C26.7763 14.7177 26.6505 14.6217 26.5248 14.6217C26.4565 14.6217 26.397 14.6504 26.3565 14.7009C26.2287 14.8583 26.3713 15.0752 26.5397 15.2178L29.1075 17.7987C29.1115 17.8025 29.4275 18.0987 29.4622 18.4948C29.4828 18.9227 29.2778 19.2802 28.852 19.5593C28.549 19.7595 28.243 19.8605 27.942 19.8605C27.5478 19.8605 27.2715 19.6802 27.2102 19.6387L26.8417 19.2752C26.1683 18.6127 25.473 17.9283 24.965 17.5035C24.8403 17.4005 24.7075 17.3045 24.5818 17.3045C24.5193 17.3045 24.463 17.3282 24.4193 17.3728C24.362 17.4382 24.3213 17.554 24.466 17.7462C24.5253 17.8253 24.5957 17.8907 24.5957 17.8907L26.4693 19.9962C26.4852 20.015 26.8555 20.4537 26.512 20.8933L26.4455 20.9775C26.3902 21.039 26.3287 21.0963 26.2713 21.1448C25.9513 21.4073 25.5255 21.435 25.3552 21.435C25.2652 21.435 25.178 21.4282 25.1027 21.4143C24.9175 21.3815 24.7937 21.3292 24.7333 21.2578L24.7105 21.235C24.6085 21.129 23.6638 20.1645 22.8823 19.5118C22.7793 19.4257 22.6507 19.3178 22.517 19.3178C22.4527 19.3178 22.3942 19.3425 22.3487 19.393C22.1942 19.5623 22.4258 19.8158 22.5248 19.908L24.1233 21.6708C24.1213 21.6867 24.1005 21.7222 24.0618 21.7777C24.0045 21.858 23.8103 22.052 23.231 22.1243C23.1617 22.1332 23.0903 22.1372 23.019 22.1372C22.421 22.1372 21.7832 21.847 21.4543 21.6727C21.6048 21.3568 21.6822 21.0092 21.6822 20.6597C21.6832 19.3445 20.6145 18.274 19.2985 18.273C19.2707 18.273 19.241 18.274 19.2133 18.275C19.2548 17.6748 19.1707 16.5369 18.0032 16.0368C17.6673 15.8912 17.3327 15.817 17.0068 15.817C16.7523 15.817 16.5068 15.8605 16.276 15.9497C16.0354 15.4793 15.6323 15.1366 15.1084 14.9584C14.8192 14.8583 14.5311 14.8078 14.2538 14.8078C13.7676 14.8078 13.3199 14.9504 12.9208 15.2337C12.5385 14.7593 11.9612 14.4771 11.3531 14.4771C10.8203 14.4771 10.3083 14.69 9.92905 15.0663C9.43192 14.686 7.45722 13.4323 2.17585 12.233C1.92037 12.1746 1.3331 12.0072 0.97361 11.9012C0.914192 12.1875 0.868637 12.4766 0.838928 12.7678C0.838928 12.7678 1.8124 13.0015 2.00452 13.0451C7.39978 14.2434 9.18335 15.4892 9.4844 15.7249C9.3824 15.9695 9.32892 16.2339 9.32892 16.5003C9.32795 17.6153 10.2351 18.5235 11.3502 18.5245C11.4749 18.5245 11.5987 18.5137 11.7205 18.4908C11.8889 19.3108 12.4256 19.9327 13.2456 20.2517C13.4853 20.3437 13.7279 20.3913 13.9666 20.3913C14.1201 20.3922 14.2756 20.3725 14.4271 20.3338C14.5786 20.719 14.9193 21.1983 15.6818 21.5073C15.9482 21.6153 16.2156 21.6717 16.4751 21.6717C16.688 21.6717 16.895 21.6342 17.092 21.5618C17.4585 22.4512 18.327 23.0403 19.2965 23.0403C19.9382 23.0413 20.5552 22.7798 21.0048 22.3175C21.389 22.5313 22.202 22.9185 23.023 22.9195C23.129 22.9195 23.229 22.9117 23.328 22.8997C24.144 22.7967 24.5233 22.4778 24.6977 22.2303C24.7283 22.1867 24.758 22.1412 24.7818 22.0927C24.974 22.1482 25.1858 22.1937 25.4285 22.1937C25.8742 22.1937 26.301 22.0422 26.7328 21.7272C27.1567 21.4222 27.4587 20.9825 27.5022 20.6092C27.5032 20.6032 27.5042 20.5982 27.5042 20.5923C27.6478 20.622 27.7943 20.6368 27.941 20.6368C28.3985 20.6368 28.85 20.4943 29.2808 20.212C30.1117 19.6673 30.2563 18.9553 30.2425 18.4888C30.388 18.5195 30.5365 18.5353 30.6852 18.5353C31.115 18.5353 31.5378 18.4057 31.9408 18.1492C32.4558 17.8203 32.7658 17.3153 32.8123 16.729C32.845 16.33 32.746 15.9279 32.536 15.5823C33.9285 14.9821 37.1113 13.8205 40.8587 12.9757C40.8358 12.6856 40.7943 12.3984 40.7418 12.1122C36.2082 13.1193 32.8232 14.583 31.9765 14.9603Z" fill="#2D3277"/>
</g>
</g>
<defs>
<clipPath id="clip0_1773_123">
<rect width="41.6667" height="30" fill="white"/>
</clipPath>
</defs>
</svg>
